# xmcd
#
# Track frame offsets:
#	150
#	21133
#	43663
#	62887
#	83288
#	104565
#	126227
#	145755
#	165303
#	186194
#	204665
#	224923
#	243921
#
# Disc length: 3509 seconds
#
# Revision: 0
# Processed by: cddbd v1.5.2PL0 Copyright (c) Steve Scherf et al.
# Submitted via: dBpowerAMP V4.0
#
DISCID=b90db30d
DTITLE=Luis Mateus - Exitos
DYEAR=0000
DGENRE=Vallenato
TTITLE0=voy a enloquecer
TTITLE1=sin ti no hay nada
TTITLE2=Adios Amor
TTITLE3=una lagrima en el alma
TTITLE4=buscandola
TTITLE5=no quiero perderte
TTITLE6=alguien como tu
TTITLE7=si no eres tu
TTITLE8=muero por verla
TTITLE9=ven para amarte
TTITLE10=sufriendo estoy
TTITLE11=no vuelcas a mirarme
TTITLE12=por amor
EXTD=
EXTT0=
EXTT1=
EXTT2=
EXTT3=
EXTT4=
EXTT5=
EXTT6=
EXTT7=
EXTT8=
EXTT9=
EXTT10=
EXTT11=
EXTT12=
PLAYORDER=
